<svg width="92" height="92" viewBox="0 0 92 92" fill="none" xmlns="http://www.w3.org/2000/svg">
<path d="M24.8481 45.6297L46.2595 67.041L78.3528 34.9476C90.5001 22.8004 90.3583 10.6531 89.6021 5.45389C89.495 4.65161 89.1269 3.90685 88.5546 3.33453C87.9823 2.76221 87.2375 2.39413 86.4353 2.2871C81.236 1.53085 69.0888 1.38905 56.9415 13.5363L24.8481 45.6297ZM24.8481 45.6297L5.04385 41.659C4.37242 41.5255 3.74982 41.2122 3.24248 40.7526C2.73515 40.2929 2.36212 39.7042 2.16318 39.0492C1.96424 38.3941 1.94686 37.6974 2.1129 37.0332C2.27894 36.3691 2.62217 35.7625 3.10596 35.2781L18.42 20.0113C19.1182 19.2989 20.0695 18.8912 21.0669 18.877H51.6005M73.0116 40.2871V70.8207C72.9974 71.8181 72.5897 72.7694 71.8772 73.4676L56.6104 88.7816C56.1261 89.2654 55.5195 89.6087 54.8554 89.7747C54.1912 89.9407 53.4945 89.9234 52.8394 89.7244C52.1844 89.5255 51.5956 89.1524 51.136 88.6451C50.6764 88.1378 50.3631 87.5152 50.2296 86.8438L46.2593 67.0395M28.5819 76.0684C21.4448 88.4047 3.48389 88.4047 3.48389 88.4047C3.48389 88.4047 3.48389 70.4438 15.8202 63.3066" stroke="#60AD5E" strokeWidth="4" strokeLinecap="round" strokeLinejoin="round"/>
</svg>
